Coordinates
version=1
nRows=12
nColumns=24
inDegrees=yes

Units are S.I. units (second, meters, Newtons, ...)
Angles are in degrees.

endheader
time	pelvis_tilt	pelvis_list	pelvis_rotation	pelvis_tx	pelvis_ty	pelvis_tz	hip_flexion_r	hip_adduction_r	hip_rotation_r	knee_angle_r	ankle_angle_r	subtalar_angle_r	mtp_angle_r	hip_flexion_l	hip_adduction_l	hip_rotation_l	knee_angle_l	ankle_angle_l	subtalar_angle_l	mtp_angle_l	lumbar_extension	lumbar_bending	lumbar_rotation
      1.43000000	      6.04912037	      0.41451813	     -0.14411472	     -0.05179719	      0.91362289	      0.04997643	     23.18709338	     -0.58634811	     -3.57891040	    -29.50702774	     17.41504297	     -3.51498582	     35.52136389	    -19.56025776	      4.00741729	     -2.87717133	     -0.81705221	     17.74208141	      1.23501586	     25.02585186	    -16.47927360	     -2.00367791	     -6.12782678
      1.43500000	      6.00029570	      0.45098129	      0.14032964	     -0.04461346	      0.91282318	      0.05009869	     22.97909214	     -0.73317305	     -3.92093723	    -27.11308257	     17.33510479	     -2.83045996	     35.73196697	    -20.01858071	      3.92405555	     -2.94721300	     -0.78761267	     17.91258904	      1.67904903	     25.29996422	    -16.43418873	     -1.99241597	     -6.40396592
      1.44000000	      6.02044551	      0.46619962	      0.40357822	     -0.03732545	      0.91207146	      0.05028294	     22.65327712	     -0.84453599	     -4.28003403	    -24.71776083	     17.19654348	     -2.16198746	     35.95508796	    -20.56733629	      3.81657043	     -3.06665520	     -0.73633968	     18.03624266	      2.16155731	     25.58701805	    -16.45556172	     -1.96367496	     -6.62208561
      1.44500000	      6.09222781	      0.49831057	      0.65045861	     -0.02996286	      0.91136769	      0.05050647	     22.24344970	     -0.96203369	     -4.65047837	    -22.35801344	     16.97784882	     -1.54552281	     36.26378139	    -21.15369066	      3.72589253	     -3.25790928	     -0.72952054	     18.09505430	      2.67958286	     25.96478569	    -16.52842416	     -1.95623847	     -6.81811719
      1.45000000	      6.09391089	      0.52483455	      0.94527257	     -0.02254957	      0.91051324	      0.05070329	     21.88679744	     -1.07695518	     -5.03918067	    -20.06274714	     16.77244582	     -0.99718371	     36.49778503	    -21.64362020	      3.59955022	     -3.31629626	     -0.76519433	     18.26380152	      3.18964412	     26.28611278	    -16.51820749	     -1.93198040	     -7.05570862
      1.45500000	      6.20868152	      0.53328365	      1.18497885	     -0.01499637	      0.90979990	      0.05099668	     21.38212308	     -1.14653085	     -5.43948191	    -17.82712891	     16.44693998	     -0.45652227	     36.91618626	    -22.26591965	      3.46635692	     -3.50572377	     -0.79780290	     18.31481922	      3.72469967	     26.79876138	    -16.61533968	     -1.90087451	     -7.17893518
      1.46000000	      6.22066604	      0.58165880	      1.52315585	     -0.00743978	      0.90892105	      0.05124833	     20.98036603	     -1.27102532	     -5.86909389	    -15.71631114	     16.17356779	     -0.10134437	     37.09897807	    -22.71222157	      3.32123408	     -3.52561435	     -0.95346184	     18.49021668	      4.23064738	     27.11297352	    -16.60470609	     -1.89862925	     -7.50081325
      1.46500000	      6.38871712	      0.60209176	      1.79374476	      0.00023570	      0.90823027	      0.05157413	     20.39976011	     -1.33733483	     -6.31126788	    -13.71434485	     15.82838284	      0.28893098	     37.36607220	    -23.33538761	      3.16426929	     -3.69952790	     -1.10840287	     18.56050979	      4.79246877	     27.54404819	    -16.75394498	     -1.87117820	     -7.66953666
      1.47000000	      6.50694011	      0.61757945	      2.08741881	      0.00799907	      0.90746195	      0.05192262	     19.87419718	     -1.38804817	     -6.73870680	    -11.86954996	     15.48218389	      0.50715788	     37.60882655	    -23.88683951	      2.97873414	     -3.79793851	     -1.30214678	     18.66011333	      5.33565248	     28.01001518	    -16.83860079	     -1.83600920	     -7.87170804
      1.47500000	      6.53020218	      0.63462325	      2.41567084	      0.01582203	      0.90655542	      0.05229657	     19.46750140	     -1.43534214	     -7.13536650	    -10.22157379	     15.15403784	      0.53381357	     37.70094102	    -24.30442486	      2.76808707	     -3.78157009	     -1.55802460	     18.81034945	      5.82602432	     28.35025504	    -16.80968003	     -1.80411287	     -8.11829059
      1.48000000	      6.76954401	      0.61875361	      2.66412316	      0.02374511	      0.90594007	      0.05275310	     18.84011141	     -1.41331651	     -7.54561026	     -8.74892093	     14.80895632	      0.62709459	     37.89024820	    -24.95368262	      2.54254720	     -3.98353139	     -1.82842639	     18.84238157	      6.39894814	     28.93327755	    -17.01238342	     -1.73742509	     -8.23966232
      1.48500000	      6.91533611	      0.60191155	      2.94699780	      0.03171630	      0.90520953	      0.05320600	     18.34297526	     -1.38905859	     -7.92270103	     -7.50599474	     14.49373836	      0.50012848	     38.01892839	    -25.46483600	      2.29055626	     -4.06250120	     -2.16692104	     18.89383060	      6.91231552	     29.57364087	    -17.10375058	     -1.66690513	     -8.39929610
